# xmcd
#
# Track frame offsets:
#	150
#	12550
#	24647
#	37205
#	47765
#	59460
#	70820
#	85545
#	96575
#	107667
#	117480
#	130212
#	141750
#	153060
#	163772
#	173502
#	183702
#	194907
#	207887
#	228942
#	246587
#	258000
#	272415
#	285787
#	294852
#	308270
#	318857
#
# Disc length: 4440 seconds
# Revision: 7
# Processed by: cddbd v1.5.2PL0 Copyright (c) Steve Scherf et al.
# Submitted via: dBpowerAMP V12.0
#
DISCID=7b11561b
DTITLE=Marty Robbins - The Essential Marty Robbins • 1951-1982, Disc 1 of 2
DYEAR=1991
DGENRE=Country
TTITLE0=Tomorrow You'll Be Gone [Robbins]
TTITLE1=I'll Go on Alone [Robbins 1953]
TTITLE2=I Couldn't Keep from Crying [Robbins 1953]
TTITLE3=Pain and Misery [Robbins 1954]
TTITLE4=That's All Right [Crudup 1946]
TTITLE5=Maybellene [Berry 1955]
TTITLE6=Tennessee Toddy [Robbins 1955]
TTITLE7=I Can't Quit (I've Gone Too Far) [Robbins 1956]
TTITLE8=Singing the Blues [Endsley 1955]
TTITLE9=Knee Deep in the Blues [Endsley 1956]
TTITLE10=Mister Teardrop [Robbins]
TTITLE11=The Story of My Life [Bacharach and David 1957]
TTITLE12=A White Sport Coat (and a Pink Carnation) [Robbins 1957]
TTITLE13=She Was Only Seventeen (He Was One Year More) [Robbins 1958]
TTITLE14=Just Married [De Vorzon and Allen 1958]
TTITLE15=Ain't I the Lucky One [Endsley]
TTITLE16=Kaw-Liga [Rose and Williams 1952]
TTITLE17=The Hanging Tree [Livingston and David 1958]
TTITLE18=El Paso [Robbins 1959]
TTITLE19=Big Iron [Robbins 1959]
TTITLE20=Song of the Bandit [Nolan]
TTITLE21=Cool Water [Nolan 1936]
TTITLE22=A Little Sentimental [Babcock 1961]
TTITLE23=September in the Rain [Warren and Dubin 1935]
TTITLE24=All the Way [Van Heusen and Cahn 1957]
TTITLE25=Unchained Melody [North and Zaret 1955]
TTITLE26=Don't Worry [Robbins 1960]
EXTD=
EXTT0=
EXTT1=
EXTT2=
EXTT3=
EXTT4=
EXTT5=
EXTT6=
EXTT7=
EXTT8=
EXTT9=
EXTT10=
EXTT11=
EXTT12=
EXTT13=
EXTT14=
EXTT15=
EXTT16=
EXTT17=
EXTT18=
EXTT19=
EXTT20=
EXTT21=
EXTT22=
EXTT23=
EXTT24=
EXTT25=
EXTT26=
PLAYORDER=
